<mxfile host="app.diagrams.net" modified="2020-10-26T20:41:34.718Z" agent="5.0 (Windows NT 10.0; Win64; x64) AppleWebKit/537.36 (KHTML, like Gecko) Chrome/86.0.4240.111 Safari/537.36" etag="_fo5U3SFPtu_tOjMseia" version="13.6.5" type="github">
  <diagram id="lcN0GCEbWEhnH_qVigrV" name="Page-1">
    <mxGraphModel dx="868" dy="450" grid="1" gridSize="10" guides="1" tooltips="1" connect="1" arrows="1" fold="1" page="1" pageScale="1" pageWidth="827" pageHeight="1169" math="0" shadow="0">
      <root>
        <mxCell id="0" />
        <mxCell id="1" parent="0" />
        <mxCell id="BS5hpZowHvRSy8G1ArGa-36" style="edgeStyle=orthogonalEdgeStyle;rounded=0;orthogonalLoop=1;jettySize=auto;html=1;entryX=0.5;entryY=0;entryDx=0;entryDy=0;entryPerimeter=0;" edge="1" parent="1" source="BS5hpZowHvRSy8G1ArGa-2" target="BS5hpZowHvRSy8G1ArGa-32">
          <mxGeometry relative="1" as="geometry" />
        </mxCell>
        <mxCell id="BS5hpZowHvRSy8G1ArGa-2" value="INICIO" style="strokeWidth=2;html=1;shape=mxgraph.flowchart.start_1;whiteSpace=wrap;fillColor=#d5e8d4;strokeColor=#82b366;" vertex="1" parent="1">
          <mxGeometry x="350" y="30" width="100" height="60" as="geometry" />
        </mxCell>
        <mxCell id="BS5hpZowHvRSy8G1ArGa-38" style="edgeStyle=orthogonalEdgeStyle;rounded=0;orthogonalLoop=1;jettySize=auto;html=1;entryX=0.5;entryY=0;entryDx=0;entryDy=0;entryPerimeter=0;" edge="1" parent="1" source="BS5hpZowHvRSy8G1ArGa-5" target="BS5hpZowHvRSy8G1ArGa-32">
          <mxGeometry relative="1" as="geometry">
            <Array as="points">
              <mxPoint x="140" y="100" />
              <mxPoint x="400" y="100" />
            </Array>
          </mxGeometry>
        </mxCell>
        <mxCell id="BS5hpZowHvRSy8G1ArGa-5" value="INSTRUÇÕES" style="whiteSpace=wrap;html=1;arcSize=12;fillColor=#dae8fc;strokeColor=#6c8ebf;" vertex="1" parent="1">
          <mxGeometry x="80" y="140" width="120" height="60" as="geometry" />
        </mxCell>
        <mxCell id="BS5hpZowHvRSy8G1ArGa-20" value="" style="edgeStyle=orthogonalEdgeStyle;rounded=0;orthogonalLoop=1;jettySize=auto;html=1;" edge="1" parent="1" source="BS5hpZowHvRSy8G1ArGa-7" target="BS5hpZowHvRSy8G1ArGa-19">
          <mxGeometry relative="1" as="geometry" />
        </mxCell>
        <mxCell id="BS5hpZowHvRSy8G1ArGa-7" value="JOGAR" style="whiteSpace=wrap;html=1;arcSize=12;fillColor=#dae8fc;strokeColor=#6c8ebf;" vertex="1" parent="1">
          <mxGeometry x="190" y="320" width="120" height="60" as="geometry" />
        </mxCell>
        <mxCell id="BS5hpZowHvRSy8G1ArGa-13" value="END GAME" style="strokeWidth=2;html=1;shape=mxgraph.flowchart.terminator;whiteSpace=wrap;fillColor=#f8cecc;strokeColor=#b85450;" vertex="1" parent="1">
          <mxGeometry x="700" y="560" width="100" height="60" as="geometry" />
        </mxCell>
        <mxCell id="BS5hpZowHvRSy8G1ArGa-39" style="edgeStyle=orthogonalEdgeStyle;rounded=0;orthogonalLoop=1;jettySize=auto;html=1;entryX=0.5;entryY=0;entryDx=0;entryDy=0;entryPerimeter=0;" edge="1" parent="1" source="BS5hpZowHvRSy8G1ArGa-15" target="BS5hpZowHvRSy8G1ArGa-32">
          <mxGeometry relative="1" as="geometry">
            <Array as="points">
              <mxPoint x="650" y="100" />
              <mxPoint x="400" y="100" />
            </Array>
          </mxGeometry>
        </mxCell>
        <mxCell id="BS5hpZowHvRSy8G1ArGa-15" value="CREDITOS" style="whiteSpace=wrap;html=1;arcSize=12;fillColor=#dae8fc;strokeColor=#6c8ebf;" vertex="1" parent="1">
          <mxGeometry x="590" y="140" width="120" height="60" as="geometry" />
        </mxCell>
        <mxCell id="BS5hpZowHvRSy8G1ArGa-22" value="" style="edgeStyle=orthogonalEdgeStyle;rounded=0;orthogonalLoop=1;jettySize=auto;html=1;" edge="1" parent="1" source="BS5hpZowHvRSy8G1ArGa-19" target="BS5hpZowHvRSy8G1ArGa-21">
          <mxGeometry relative="1" as="geometry" />
        </mxCell>
        <mxCell id="BS5hpZowHvRSy8G1ArGa-19" value="CAPITULO 1" style="whiteSpace=wrap;html=1;arcSize=12;fillColor=#ffe6cc;strokeColor=#d79b00;" vertex="1" parent="1">
          <mxGeometry x="190" y="410" width="120" height="60" as="geometry" />
        </mxCell>
        <mxCell id="BS5hpZowHvRSy8G1ArGa-26" value="" style="edgeStyle=orthogonalEdgeStyle;rounded=0;orthogonalLoop=1;jettySize=auto;html=1;" edge="1" parent="1" source="BS5hpZowHvRSy8G1ArGa-21" target="BS5hpZowHvRSy8G1ArGa-25">
          <mxGeometry relative="1" as="geometry" />
        </mxCell>
        <mxCell id="BS5hpZowHvRSy8G1ArGa-21" value="CAPITULO 2" style="whiteSpace=wrap;html=1;arcSize=12;fillColor=#ffe6cc;strokeColor=#d79b00;" vertex="1" parent="1">
          <mxGeometry x="190" y="490" width="120" height="60" as="geometry" />
        </mxCell>
        <mxCell id="BS5hpZowHvRSy8G1ArGa-23" value="" style="edgeStyle=orthogonalEdgeStyle;rounded=0;orthogonalLoop=1;jettySize=auto;html=1;" edge="1" parent="1" source="BS5hpZowHvRSy8G1ArGa-24" target="BS5hpZowHvRSy8G1ArGa-25">
          <mxGeometry relative="1" as="geometry" />
        </mxCell>
        <mxCell id="BS5hpZowHvRSy8G1ArGa-24" value="CAPITULO 3" style="whiteSpace=wrap;html=1;arcSize=12;fillColor=#ffe6cc;strokeColor=#d79b00;" vertex="1" parent="1">
          <mxGeometry x="190" y="570" width="120" height="60" as="geometry" />
        </mxCell>
        <mxCell id="BS5hpZowHvRSy8G1ArGa-28" value="" style="edgeStyle=orthogonalEdgeStyle;rounded=0;orthogonalLoop=1;jettySize=auto;html=1;" edge="1" parent="1" source="BS5hpZowHvRSy8G1ArGa-25" target="BS5hpZowHvRSy8G1ArGa-27">
          <mxGeometry relative="1" as="geometry" />
        </mxCell>
        <mxCell id="BS5hpZowHvRSy8G1ArGa-25" value="CAPITULO 4" style="whiteSpace=wrap;html=1;arcSize=12;fillColor=#ffe6cc;strokeColor=#d79b00;" vertex="1" parent="1">
          <mxGeometry x="190" y="650" width="120" height="60" as="geometry" />
        </mxCell>
        <mxCell id="BS5hpZowHvRSy8G1ArGa-30" value="" style="edgeStyle=orthogonalEdgeStyle;rounded=0;orthogonalLoop=1;jettySize=auto;html=1;" edge="1" parent="1" source="BS5hpZowHvRSy8G1ArGa-27" target="BS5hpZowHvRSy8G1ArGa-29">
          <mxGeometry relative="1" as="geometry" />
        </mxCell>
        <mxCell id="BS5hpZowHvRSy8G1ArGa-27" value="CAPITULO 5" style="whiteSpace=wrap;html=1;arcSize=12;fillColor=#ffe6cc;strokeColor=#d79b00;" vertex="1" parent="1">
          <mxGeometry x="190" y="730" width="120" height="60" as="geometry" />
        </mxCell>
        <mxCell id="BS5hpZowHvRSy8G1ArGa-31" style="edgeStyle=orthogonalEdgeStyle;rounded=0;orthogonalLoop=1;jettySize=auto;html=1;entryX=0.5;entryY=1;entryDx=0;entryDy=0;entryPerimeter=0;" edge="1" parent="1" source="BS5hpZowHvRSy8G1ArGa-29" target="BS5hpZowHvRSy8G1ArGa-13">
          <mxGeometry relative="1" as="geometry" />
        </mxCell>
        <mxCell id="BS5hpZowHvRSy8G1ArGa-29" value="AGRADECIMENTOS" style="whiteSpace=wrap;html=1;arcSize=12;fillColor=#dae8fc;strokeColor=#6c8ebf;" vertex="1" parent="1">
          <mxGeometry x="190" y="810" width="120" height="60" as="geometry" />
        </mxCell>
        <mxCell id="BS5hpZowHvRSy8G1ArGa-33" style="edgeStyle=orthogonalEdgeStyle;rounded=0;orthogonalLoop=1;jettySize=auto;html=1;" edge="1" parent="1" source="BS5hpZowHvRSy8G1ArGa-32" target="BS5hpZowHvRSy8G1ArGa-7">
          <mxGeometry relative="1" as="geometry">
            <Array as="points">
              <mxPoint x="400" y="350" />
            </Array>
          </mxGeometry>
        </mxCell>
        <mxCell id="BS5hpZowHvRSy8G1ArGa-34" style="edgeStyle=orthogonalEdgeStyle;rounded=0;orthogonalLoop=1;jettySize=auto;html=1;entryX=0;entryY=0.5;entryDx=0;entryDy=0;" edge="1" parent="1" source="BS5hpZowHvRSy8G1ArGa-32" target="BS5hpZowHvRSy8G1ArGa-15">
          <mxGeometry relative="1" as="geometry" />
        </mxCell>
        <mxCell id="BS5hpZowHvRSy8G1ArGa-37" style="edgeStyle=orthogonalEdgeStyle;rounded=0;orthogonalLoop=1;jettySize=auto;html=1;entryX=1;entryY=0.5;entryDx=0;entryDy=0;" edge="1" parent="1" source="BS5hpZowHvRSy8G1ArGa-32" target="BS5hpZowHvRSy8G1ArGa-5">
          <mxGeometry relative="1" as="geometry" />
        </mxCell>
        <mxCell id="BS5hpZowHvRSy8G1ArGa-44" style="edgeStyle=orthogonalEdgeStyle;rounded=0;orthogonalLoop=1;jettySize=auto;html=1;entryX=0;entryY=0.5;entryDx=0;entryDy=0;" edge="1" parent="1" source="BS5hpZowHvRSy8G1ArGa-32" target="BS5hpZowHvRSy8G1ArGa-43">
          <mxGeometry relative="1" as="geometry">
            <Array as="points">
              <mxPoint x="400" y="350" />
            </Array>
          </mxGeometry>
        </mxCell>
        <mxCell id="BS5hpZowHvRSy8G1ArGa-32" value="MENU" style="strokeWidth=2;html=1;shape=mxgraph.flowchart.decision;whiteSpace=wrap;fillColor=#fff2cc;strokeColor=#d6b656;" vertex="1" parent="1">
          <mxGeometry x="350" y="120" width="100" height="100" as="geometry" />
        </mxCell>
        <mxCell id="BS5hpZowHvRSy8G1ArGa-45" style="edgeStyle=orthogonalEdgeStyle;rounded=0;orthogonalLoop=1;jettySize=auto;html=1;entryX=0.5;entryY=0;entryDx=0;entryDy=0;entryPerimeter=0;" edge="1" parent="1" source="BS5hpZowHvRSy8G1ArGa-43" target="BS5hpZowHvRSy8G1ArGa-13">
          <mxGeometry relative="1" as="geometry" />
        </mxCell>
        <mxCell id="BS5hpZowHvRSy8G1ArGa-43" value="SAIR" style="whiteSpace=wrap;html=1;arcSize=12;fillColor=#dae8fc;strokeColor=#6c8ebf;" vertex="1" parent="1">
          <mxGeometry x="480" y="320" width="120" height="60" as="geometry" />
        </mxCell>
      </root>
    </mxGraphModel>
  </diagram>
</mxfile>
